<svg xmlns="http://www.w3.org/2000/svg" xmlns:xlink="http://www.w3.org/1999/xlink" width="900" zoomAndPan="magnify" viewBox="0 0 675 675.000002" height="900" preserveAspectRatio="xMidYMid meet" version="1.2"><defs><clipPath id="d6c9b1c099"><path d="M 223 447 L 416 447 L 416 529.632812 L 223 529.632812 Z M 223 447 "/></clipPath><clipPath id="6b0ed9b273"><path d="M 415 324 L 607.035156 324 L 607.035156 366 L 415 366 Z M 415 324 "/></clipPath><clipPath id="84b5a411e9"><path d="M 415 365 L 607.035156 365 L 607.035156 448 L 415 448 Z M 415 365 "/></clipPath><clipPath id="39b024f51d"><path d="M 31.140625 324 L 224 324 L 224 366 L 31.140625 366 Z M 31.140625 324 "/></clipPath><clipPath id="ae07fc8c6e"><path d="M 31.140625 365 L 224 365 L 224 448 L 31.140625 448 Z M 31.140625 365 "/></clipPath></defs><g id="e23259105b"><path style=" stroke:none;fill-rule:nonzero;fill:#000000;fill-opacity:1;" d="M 189.921875 299.152344 C 189.921875 299.152344 195.386719 295.699219 195.386719 291.027344 C 195.386719 286.355469 187.09375 282.109375 180.476562 279.675781 C 173.863281 277.242188 173.535156 274.511719 173.535156 273.589844 C 173.535156 272.667969 174.589844 270.859375 177.515625 270.859375 C 180.445312 270.859375 182.125 269.148438 182.125 268.128906 C 182.125 267.109375 180.875 264.96875 175.9375 263.980469 C 171 262.960938 171.625 259.835938 171.625 259.113281 C 171.625 258.390625 171.726562 257.105469 172.382812 256.710938 C 173.042969 256.316406 176.101562 256.21875 176.332031 255.429688 C 176.5625 254.636719 175.246094 253.453125 174.359375 253.09375 C 173.46875 252.730469 175.015625 252.367188 175.675781 252.203125 C 176.332031 252.039062 177.417969 251.316406 177.417969 250.492188 C 177.417969 250.492188 177.679688 249.277344 175.839844 247.695312 C 175.738281 247.628906 175.640625 247.53125 175.542969 247.464844 C 171.824219 245.394531 155.105469 235.753906 148.886719 225.257812 C 142.667969 214.730469 143.984375 195.613281 144.34375 194.003906 C 144.707031 192.359375 146.285156 191.007812 148.097656 190.878906 C 149.542969 190.777344 151.289062 189.5625 151.289062 188.113281 C 151.289062 185.613281 153.625 186.5 154.515625 185.285156 C 155.601562 183.769531 154.644531 182.324219 153.625 181.632812 C 152.835938 181.105469 153.097656 179.921875 154.679688 179.558594 C 156.257812 179.199219 161.65625 178.835938 165.011719 177.949219 C 168.367188 177.058594 167.28125 171.628906 165.011719 170.378906 C 162.742188 169.128906 156.421875 166.894531 150.796875 164.523438 C 145.167969 162.15625 149.808594 158.4375 151.253906 158.4375 C 152.703125 158.4375 153.789062 156.792969 153.789062 155.902344 C 153.789062 155.015625 153.097656 152.152344 150.628906 152.152344 C 148.164062 152.152344 140.460938 152.152344 140.460938 152.152344 C 140.460938 152.152344 159.515625 146.328125 159.515625 126.292969 C 159.515625 106.257812 146.1875 93.261719 127.101562 93.261719 C 108.015625 93.261719 94.6875 106.257812 94.6875 126.292969 C 94.6875 146.328125 113.742188 152.152344 113.742188 152.152344 C 113.742188 152.152344 106.039062 152.152344 103.570312 152.152344 C 101.101562 152.152344 100.414062 155.015625 100.414062 155.902344 C 100.414062 156.792969 101.5 158.4375 102.945312 158.4375 C 104.394531 158.4375 109.035156 162.15625 103.40625 164.523438 C 97.78125 166.894531 91.460938 169.128906 89.191406 170.378906 C 86.921875 171.628906 85.832031 177.058594 89.191406 177.949219 C 92.546875 178.835938 97.945312 179.199219 99.523438 179.558594 C 101.070312 179.921875 101.367188 181.105469 100.578125 181.632812 C 99.558594 182.324219 98.601562 183.769531 99.6875 185.285156 C 100.578125 186.5 102.914062 185.644531 102.914062 188.113281 C 102.914062 189.5625 104.65625 190.777344 106.105469 190.878906 C 107.949219 191.007812 109.527344 192.359375 109.855469 194.003906 C 110.21875 195.648438 111.535156 214.730469 105.316406 225.257812 C 99.097656 235.785156 82.410156 245.394531 78.660156 247.464844 C 78.5625 247.53125 78.460938 247.628906 78.363281 247.695312 C 76.519531 249.277344 76.785156 250.492188 76.785156 250.492188 C 76.785156 251.347656 77.871094 252.039062 78.527344 252.203125 C 79.1875 252.367188 80.734375 252.699219 79.84375 253.09375 C 78.957031 253.453125 77.640625 254.636719 77.871094 255.429688 C 78.101562 256.21875 81.160156 256.316406 81.820312 256.710938 C 82.476562 257.105469 82.574219 258.390625 82.574219 259.113281 C 82.574219 259.835938 83.203125 262.960938 78.265625 263.980469 C 73.328125 265.003906 72.078125 267.140625 72.078125 268.128906 C 72.078125 269.148438 73.757812 270.859375 76.683594 270.859375 C 79.613281 270.859375 80.667969 272.699219 80.667969 273.589844 C 80.667969 274.511719 80.339844 277.242188 73.722656 279.675781 C 67.109375 282.109375 58.816406 286.386719 58.816406 291.027344 C 58.816406 295.699219 64.277344 299.152344 64.277344 299.152344 C 61.351562 299.351562 57.335938 300.566406 57.335938 305.863281 C 57.335938 311.128906 60.496094 313.035156 60.496094 313.035156 L 193.707031 313.035156 C 193.707031 313.035156 196.867188 311.128906 196.867188 305.863281 C 196.832031 300.566406 192.851562 299.351562 189.921875 299.152344 Z M 107.027344 141.199219 C 96.035156 129.519531 101.070312 116.785156 105.117188 110.566406 C 105.808594 109.515625 107.585938 110.304688 107.09375 111.585938 C 100.511719 128.203125 105.347656 134.125 108.640625 139.585938 C 109.5625 141.097656 107.75 141.953125 107.027344 141.199219 Z M 112.390625 106.160156 L 111.402344 106.980469 C 110.910156 107.375 110.480469 107.835938 110.085938 108.328125 L 109.460938 109.085938 C 108.804688 109.710938 108.144531 109.582031 107.621094 109.085938 C 107.125 108.59375 107.125 107.902344 107.621094 107.246094 L 107.851562 106.949219 C 108.476562 106.125 109.199219 105.367188 109.988281 104.742188 L 110.546875 104.316406 C 111.042969 103.824219 111.863281 103.824219 112.390625 104.316406 C 112.882812 104.808594 112.882812 105.632812 112.390625 106.160156 Z M 103.242188 154.488281 C 103.242188 153.765625 104.625 153.207031 106.535156 153.207031 L 138.324219 154.257812 C 138.847656 154.292969 138.847656 154.6875 138.324219 154.71875 L 106.535156 155.773438 C 104.164062 155.773438 103.242188 155.214844 103.242188 154.488281 Z M 92.085938 174.984375 C 90.96875 175.019531 90.046875 174.132812 90.046875 173.011719 C 90.046875 171.894531 90.96875 171.003906 92.085938 171.039062 L 157.441406 173.011719 Z M 101.464844 182.75 C 101.464844 181.863281 102.355469 181.171875 103.570312 181.171875 L 123.910156 182.453125 C 124.238281 182.488281 124.238281 182.980469 123.910156 183.015625 L 103.570312 184.296875 C 102.058594 184.328125 101.464844 183.605469 101.464844 182.75 Z M 107.058594 189.265625 C 105.546875 189.265625 104.953125 188.574219 104.953125 187.6875 C 104.953125 186.796875 105.84375 186.105469 107.058594 186.105469 L 127.398438 187.390625 C 127.726562 187.421875 127.726562 187.917969 127.398438 187.949219 Z M 114.167969 196.175781 C 114.167969 196.175781 119.796875 219.566406 109.132812 247.136719 L 92.019531 247.136719 C 92.019531 247.136719 114.761719 232.925781 114.167969 196.175781 Z M 78.824219 250.195312 C 78.824219 249.078125 80.140625 248.980469 80.140625 248.980469 L 138.882812 249.242188 L 80.140625 251.445312 C 80.140625 251.445312 78.824219 251.316406 78.824219 250.195312 Z M 80.863281 255.492188 C 80.863281 255.492188 79.945312 255.429688 79.945312 254.574219 C 79.945312 253.75 80.898438 253.683594 80.898438 253.683594 L 122.660156 253.882812 Z M 75.699219 268.71875 C 75.699219 268.71875 73.988281 268.621094 73.988281 267.601562 C 73.988281 266.582031 75.699219 266.484375 75.699219 266.484375 L 152.242188 266.484375 Z M 168.894531 302.738281 L 128.84375 303.988281 L 62.632812 304.679688 C 62.632812 304.679688 60.265625 304.546875 60.265625 303.199219 C 60.265625 301.851562 62.632812 301.71875 62.632812 301.71875 L 168.894531 301.71875 Z M 65.695312 294.414062 C 65.695312 294.414062 62.929688 294.21875 62.929688 292.179688 C 62.929688 290.136719 65.695312 289.941406 65.695312 289.941406 L 188.671875 289.941406 Z M 65.695312 294.414062 "/><path style=" stroke:none;fill-rule:nonzero;fill:#000000;fill-opacity:1;" d="M 240.570312 386.304688 C 240.570312 392.523438 244.15625 394.730469 244.15625 394.730469 L 395.4375 394.730469 C 395.4375 394.730469 399.023438 392.492188 399.023438 386.304688 C 399.023438 380.089844 394.480469 378.671875 391.15625 378.441406 C 391.15625 378.441406 397.378906 374.394531 397.378906 368.902344 C 397.378906 363.40625 387.964844 358.40625 380.429688 355.542969 C 372.925781 352.683594 372.566406 349.457031 372.566406 348.371094 C 372.566406 347.285156 373.75 345.148438 377.105469 345.148438 C 380.460938 345.148438 382.371094 343.109375 382.371094 341.921875 C 382.371094 340.738281 380.921875 338.238281 375.328125 337.019531 C 369.734375 335.835938 370.425781 332.117188 370.425781 331.296875 C 370.425781 330.472656 370.558594 328.960938 371.3125 328.46875 C 372.070312 327.972656 375.527344 327.875 375.824219 326.953125 C 376.085938 326.03125 374.605469 324.652344 373.585938 324.222656 C 372.597656 323.796875 374.339844 323.402344 375.097656 323.203125 C 375.855469 323.003906 377.074219 322.183594 377.074219 321.164062 C 377.074219 320.175781 372.695312 316.457031 366.90625 313.695312 C 361.113281 310.964844 349.660156 301.917969 343.605469 285.203125 C 337.550781 268.488281 338.503906 252.269531 338.503906 248.945312 C 338.503906 245.589844 338.503906 234.800781 338.503906 232.398438 C 338.503906 229.996094 341.203125 226.671875 343.902344 226.34375 C 346.601562 226.015625 348.210938 224.4375 348.210938 223.316406 C 348.210938 222.199219 347.09375 221.015625 345.875 220.453125 C 344.660156 219.894531 347.785156 219.171875 348.542969 219.074219 C 349.296875 218.972656 350.910156 217.921875 350.910156 216.902344 C 350.910156 215.882812 350.054688 214.761719 348.9375 214.367188 C 347.816406 213.972656 349.398438 212.132812 351.40625 211.867188 C 353.378906 211.605469 358.777344 211.144531 360.980469 210.75 C 363.21875 210.355469 365.292969 207.523438 365.292969 205.945312 C 365.292969 204.367188 364.765625 201.042969 359.433594 199.234375 C 354.101562 197.390625 350.054688 196.207031 347.917969 195.417969 C 345.777344 194.628906 343.375 191.929688 343.375 190.582031 C 343.375 189.230469 344.066406 188.015625 345.316406 187.71875 C 346.566406 187.421875 348.773438 186.402344 348.773438 184.625 C 348.773438 182.847656 347.949219 181.074219 345.183594 180.316406 C 342.453125 179.558594 340.414062 178.34375 340.378906 177.289062 C 340.347656 176.203125 341.960938 174.820312 343.34375 174.425781 C 344.722656 174.03125 345.679688 172.421875 345.679688 171.628906 C 345.679688 170.839844 345.515625 169.855469 344.132812 169.625 C 342.75 169.394531 341.335938 169.128906 341.335938 168.4375 C 341.335938 167.714844 359.828125 122.050781 359.992188 120.535156 C 360.160156 119.023438 361.472656 114.679688 357.359375 112.113281 C 353.246094 109.546875 340.117188 105.5 333.863281 105.5 L 333.863281 102.011719 L 331.496094 102.011719 C 331.496094 102.011719 330.375 101.058594 331.363281 100.464844 C 332.351562 99.875 332.746094 99.152344 332.746094 98.230469 C 332.746094 97.308594 332.054688 94.183594 331.164062 92.832031 C 330.246094 91.484375 328.699219 89.148438 328.5 88.292969 C 328.304688 87.472656 329.058594 86.121094 330.375 87.011719 C 331.691406 87.929688 334.425781 88.851562 336.265625 88.851562 C 338.109375 88.851562 341.925781 87.703125 341.925781 84.214844 C 341.925781 80.726562 341.925781 78.488281 341.597656 77.46875 C 341.269531 76.449219 340.480469 73.882812 338.242188 73.324219 C 336.003906 72.765625 333.863281 72.929688 332.648438 73.289062 C 331.429688 73.652344 331.132812 74.277344 330.476562 74.476562 C 329.785156 74.671875 328.929688 74.507812 328.730469 74.046875 C 328.535156 73.554688 328.894531 72.929688 329.71875 72.074219 C 330.539062 71.183594 332.546875 67.074219 332.546875 64.242188 C 332.546875 61.414062 329.488281 59.933594 328.335938 59.605469 C 327.183594 59.242188 324.683594 59.339844 324.089844 58.878906 C 323.5 58.386719 323.664062 57.628906 324.222656 57.136719 C 324.75 56.644531 325.339844 55.589844 325.339844 54.40625 C 325.339844 53.1875 324.847656 51.707031 323.664062 50.917969 C 322.476562 50.128906 320.996094 50.226562 319.878906 50.226562 C 318.757812 50.226562 317.277344 50.128906 316.09375 50.917969 C 314.910156 51.707031 314.414062 53.1875 314.414062 54.40625 C 314.414062 55.625 315.007812 56.675781 315.535156 57.136719 C 316.0625 57.628906 316.257812 58.386719 315.667969 58.878906 C 315.074219 59.375 312.574219 59.242188 311.421875 59.605469 C 310.269531 59.964844 307.207031 61.445312 307.207031 64.242188 C 307.207031 67.039062 309.183594 71.183594 310.039062 72.074219 C 310.863281 72.960938 311.222656 73.585938 311.027344 74.046875 C 310.828125 74.542969 309.941406 74.671875 309.28125 74.476562 C 308.589844 74.277344 308.328125 73.652344 307.109375 73.289062 C 305.890625 72.929688 303.71875 72.765625 301.515625 73.324219 C 299.277344 73.882812 298.488281 76.417969 298.160156 77.46875 C 297.828125 78.488281 297.828125 80.726562 297.828125 84.214844 C 297.828125 87.703125 301.648438 88.851562 303.488281 88.851562 C 305.332031 88.851562 308.0625 87.929688 309.378906 87.011719 C 310.695312 86.089844 311.453125 87.4375 311.257812 88.292969 C 311.058594 89.117188 309.511719 91.484375 308.589844 92.832031 C 307.667969 94.183594 307.011719 97.339844 307.011719 98.230469 C 307.011719 99.152344 307.40625 99.875 308.394531 100.464844 C 309.378906 101.058594 308.261719 102.011719 308.261719 102.011719 L 305.890625 102.011719 L 305.890625 105.5 C 299.640625 105.5 286.507812 109.546875 282.394531 112.113281 C 278.28125 114.679688 279.597656 119.023438 279.761719 120.535156 C 279.925781 122.015625 298.421875 167.714844 298.421875 168.4375 C 298.421875 169.164062 296.972656 169.394531 295.625 169.625 C 294.277344 169.855469 294.078125 170.875 294.078125 171.628906 C 294.078125 172.421875 295.03125 174.03125 296.414062 174.425781 C 297.796875 174.820312 299.410156 176.203125 299.375 177.289062 C 299.34375 178.375 297.304688 179.59375 294.570312 180.316406 C 291.839844 181.074219 290.984375 182.816406 290.984375 184.625 C 290.984375 186.402344 293.191406 187.421875 294.441406 187.71875 C 295.691406 188.015625 296.382812 189.230469 296.382812 190.582031 C 296.382812 191.929688 293.980469 194.628906 291.839844 195.417969 C 289.703125 196.207031 285.621094 197.390625 280.324219 199.234375 C 274.992188 201.078125 274.464844 204.367188 274.464844 205.945312 C 274.464844 207.523438 276.539062 210.355469 278.777344 210.75 C 281.011719 211.144531 286.378906 211.570312 288.351562 211.867188 C 290.328125 212.132812 291.9375 213.972656 290.820312 214.367188 C 289.703125 214.761719 288.847656 215.882812 288.847656 216.902344 C 288.847656 217.921875 290.457031 218.972656 291.214844 219.074219 C 291.972656 219.171875 295.097656 219.863281 293.878906 220.453125 C 292.664062 221.015625 291.542969 222.199219 291.542969 223.316406 C 291.542969 224.4375 293.125 226.015625 295.855469 226.34375 C 298.554688 226.671875 301.253906 229.996094 301.253906 232.398438 C 301.253906 234.800781 301.253906 245.589844 301.253906 248.945312 C 301.253906 252.300781 302.207031 268.523438 296.152344 285.203125 C 290.097656 301.917969 278.644531 310.929688 272.851562 313.695312 C 267.058594 316.425781 262.683594 320.144531 262.683594 321.164062 C 262.683594 322.148438 263.902344 323.003906 264.65625 323.203125 C 265.414062 323.402344 267.160156 323.796875 266.171875 324.222656 C 265.183594 324.652344 263.671875 326.066406 263.933594 326.953125 C 264.199219 327.875 267.6875 327.972656 268.441406 328.46875 C 269.199219 328.929688 269.332031 330.441406 269.332031 331.296875 C 269.332031 332.152344 270.054688 335.835938 264.429688 337.019531 C 258.832031 338.207031 257.386719 340.707031 257.386719 341.921875 C 257.386719 343.109375 259.292969 345.148438 262.652344 345.148438 C 266.007812 345.148438 267.191406 347.285156 267.191406 348.371094 C 267.191406 349.457031 266.828125 352.683594 259.328125 355.542969 C 251.824219 358.40625 242.378906 363.40625 242.378906 368.902344 C 242.378906 374.394531 248.597656 378.441406 248.597656 378.441406 C 245.109375 378.671875 240.570312 380.089844 240.570312 386.304688 Z M 301.746094 76.8125 C 300.628906 78.882812 300.230469 79.738281 300.5625 84.28125 C 300.5625 84.28125 299.113281 82.140625 299.277344 79.34375 C 299.441406 76.546875 300.855469 74.804688 302.207031 74.410156 C 303.554688 74.015625 305.5625 74.410156 305.5625 74.410156 C 305.5625 74.410156 302.863281 74.738281 301.746094 76.8125 Z M 310.632812 68.554688 C 310.632812 68.554688 309.019531 66.90625 309.183594 64.738281 C 309.347656 62.597656 310.992188 61.25 312.507812 60.921875 C 314.019531 60.625 316.292969 60.921875 316.292969 60.921875 C 316.292969 60.921875 313.230469 61.152344 311.980469 62.761719 C 310.730469 64.375 310.269531 65.03125 310.632812 68.554688 Z M 309.214844 95.664062 C 309.941406 94.378906 311.453125 91.453125 311.453125 91.453125 C 311.453125 91.453125 309.808594 97.046875 309.808594 97.933594 C 309.808594 98.820312 311.027344 100.402344 311.027344 100.402344 C 311.027344 100.402344 309.710938 100.070312 308.984375 99.183594 C 308.261719 98.261719 308.492188 96.945312 309.214844 95.664062 Z M 286.378906 121.523438 C 284.699219 115.402344 287.496094 114.382812 289.242188 113.332031 C 294.902344 109.910156 303.390625 109.054688 303.390625 109.054688 C 299.96875 111.027344 297.535156 112.871094 295.886719 114.777344 L 344.199219 115.832031 L 344.199219 116.390625 L 293.847656 117.96875 C 292.136719 121.851562 292.828125 126.261719 294.109375 132.511719 C 297.203125 147.582031 301.417969 163.601562 301.417969 163.601562 C 294.964844 151.496094 288.054688 127.640625 286.378906 121.523438 Z M 297.929688 172.847656 C 297.039062 172.847656 296.347656 172.355469 296.347656 171.730469 C 296.347656 171.105469 297.074219 170.609375 297.929688 170.609375 L 329.683594 170.839844 L 329.683594 171.234375 Z M 294.472656 184.855469 C 293.945312 184.855469 293.550781 184.101562 293.550781 183.144531 C 293.550781 182.191406 293.980469 181.402344 294.507812 181.433594 L 336.035156 182.585938 L 336.035156 183.144531 Z M 279.105469 206.539062 C 278.183594 206.539062 277.460938 205.78125 277.460938 204.828125 C 277.460938 203.871094 278.214844 203.082031 279.136719 203.117188 L 353.609375 204.269531 L 353.609375 204.828125 Z M 292.039062 217.261719 C 291.414062 217.261719 290.917969 216.769531 290.917969 216.144531 C 290.917969 215.519531 291.414062 215.027344 292.039062 215.027344 L 314.21875 215.257812 L 314.21875 215.652344 Z M 295.363281 223.746094 C 294.703125 223.746094 294.175781 223.152344 294.175781 222.394531 C 294.175781 221.640625 294.703125 221.046875 295.363281 221.046875 L 319.15625 221.34375 L 319.15625 221.804688 Z M 302.832031 276.320312 C 306.683594 256.742188 305.890625 234.964844 305.890625 234.964844 C 310.5 266.316406 309.445312 283.164062 307.800781 292.867188 C 306.714844 299.316406 300.988281 315.933594 300.988281 315.933594 L 281.605469 315.933594 C 289.339844 308.628906 298.058594 300.632812 302.832031 276.320312 Z M 264.921875 320.867188 C 264.921875 319.550781 266.433594 319.417969 266.433594 319.417969 L 333.171875 319.714844 L 266.402344 322.316406 C 266.402344 322.316406 264.921875 322.214844 264.921875 320.867188 Z M 267.257812 327.117188 C 267.257812 327.117188 266.203125 327.019531 266.203125 326.03125 C 266.203125 325.046875 267.289062 324.980469 267.289062 324.980469 L 314.746094 325.210938 Z M 261.367188 342.679688 C 261.367188 342.679688 259.425781 342.582031 259.425781 341.363281 C 259.425781 340.148438 261.367188 340.046875 261.367188 340.046875 L 348.34375 340.046875 Z M 246.855469 370.25 C 246.855469 367.847656 249.980469 367.617188 249.980469 367.617188 L 389.710938 367.617188 L 249.980469 372.851562 C 249.980469 372.851562 246.855469 372.652344 246.855469 370.25 Z M 246.558594 381.46875 L 367.300781 381.46875 L 367.300781 382.652344 L 321.820312 384.136719 L 246.589844 384.957031 C 246.589844 384.957031 243.894531 384.824219 243.894531 383.214844 C 243.828125 381.601562 246.558594 381.46875 246.558594 381.46875 Z M 246.558594 381.46875 "/><path style=" stroke:none;fill-rule:nonzero;fill:#000000;fill-opacity:1;" d="M 436.835938 156.101562 C 438.28125 158.007812 440.09375 157.613281 440.882812 157.121094 C 441.671875 156.628906 448.847656 151.957031 452.664062 149.949219 C 456.480469 147.976562 456.480469 151.921875 456.085938 152.648438 C 455.691406 153.371094 453.550781 155.277344 450.917969 158.140625 C 448.285156 161.003906 448.121094 162.910156 448.121094 165.609375 C 448.121094 168.308594 450.195312 168.308594 450.195312 168.308594 C 450.195312 168.308594 459.804688 168.539062 464.28125 168.308594 C 468.722656 168.078125 469.613281 166.003906 470.566406 164.65625 C 471.519531 163.304688 472.640625 161.070312 476.785156 155.902344 C 480.933594 150.738281 483.960938 148.601562 490.542969 148.601562 C 497.15625 148.601562 499.753906 147.382812 499.753906 147.382812 C 515.089844 140.40625 513.90625 121.984375 513.90625 121.984375 C 518.449219 138.136719 505.152344 147.808594 505.152344 147.808594 C 511.371094 149.125 519.335938 155.574219 513.609375 166.894531 C 507.882812 178.210938 490.34375 194.5625 479.976562 202.6875 C 469.613281 210.816406 464.871094 215.421875 461.285156 221.703125 C 457.699219 227.988281 459.046875 233.382812 461.21875 236.640625 C 463.359375 239.898438 475.699219 253.585938 477.3125 255.296875 C 478.925781 257.007812 477.839844 257.664062 476.621094 257.730469 C 475.402344 257.796875 474.019531 257.765625 472.835938 258.621094 C 471.617188 259.476562 471.914062 260.199219 471.914062 260.199219 C 472.144531 260.921875 474.941406 261.019531 475.535156 261.414062 C 476.160156 261.8125 476.257812 262.996094 476.257812 263.652344 C 476.257812 264.3125 476.851562 267.273438 472.308594 268.226562 C 467.769531 269.179688 466.617188 271.1875 466.617188 272.109375 C 466.617188 273.0625 468.164062 274.675781 470.863281 274.675781 C 473.5625 274.675781 474.515625 276.386719 474.515625 277.242188 C 474.515625 278.097656 474.21875 280.664062 468.128906 282.933594 C 462.042969 285.203125 454.441406 289.21875 454.441406 293.558594 C 454.441406 297.902344 459.441406 301.160156 459.441406 301.160156 C 456.746094 301.355469 453.058594 302.476562 453.058594 307.445312 C 453.058594 312.410156 455.953125 314.15625 455.953125 314.15625 L 578.308594 314.15625 C 578.308594 314.15625 581.203125 312.378906 581.203125 307.445312 C 581.203125 302.507812 577.550781 301.355469 574.820312 301.160156 C 574.820312 301.160156 579.820312 297.933594 579.820312 293.558594 C 579.820312 289.183594 572.1875 285.203125 566.132812 282.933594 C 560.042969 280.664062 559.746094 278.097656 559.746094 277.242188 C 559.746094 276.386719 560.703125 274.675781 563.402344 274.675781 C 566.097656 274.675781 567.644531 273.0625 567.644531 272.109375 C 567.644531 271.15625 566.492188 269.148438 561.953125 268.226562 C 557.410156 267.273438 558.003906 264.34375 558.003906 263.652344 C 558.003906 262.996094 558.828125 261.976562 560.964844 261.316406 C 563.761719 260.496094 562.941406 258.71875 561.03125 258.585938 C 559.121094 258.453125 556.488281 258.222656 557.574219 257.039062 C 558.660156 255.855469 560.800781 254.113281 562.542969 254.113281 C 564.289062 254.113281 570.410156 254.738281 572.152344 253.324219 C 573.898438 251.875 576.367188 244.242188 576.367188 244.242188 C 567.777344 247.433594 552.671875 245.195312 552.671875 245.195312 C 556.652344 243.75 564.125 240.589844 568.894531 238.1875 C 573.667969 235.785156 579.230469 232.925781 580.972656 228.316406 C 582.71875 223.710938 585.417969 207.328125 585.417969 207.328125 C 569.816406 217.824219 544.378906 218.449219 544.378906 218.449219 C 549.777344 214.960938 563.003906 205.878906 568.863281 200.320312 C 574.753906 194.757812 587.160156 180.449219 587.949219 176.300781 C 588.738281 172.15625 586.996094 148.007812 586.996094 148.007812 C 583.640625 153.109375 583.34375 154.851562 570.148438 166.300781 C 556.949219 177.75 551.222656 178.078125 551.222656 178.078125 C 562.839844 169 569.980469 156.757812 573.667969 148.5 C 577.320312 140.242188 580.347656 126.558594 580.183594 120.207031 C 580.019531 113.855469 571.757812 103.199219 571.757812 103.199219 C 571.132812 108.296875 568.730469 114.976562 564.585938 123.859375 C 560.4375 132.773438 556.457031 135.636719 556.457031 135.636719 C 558.695312 129.617188 559.320312 124.648438 561.0625 114.316406 C 562.808594 103.988281 561.855469 90.792969 558.992188 85.859375 C 556.128906 80.921875 547.375 77.601562 547.375 77.601562 C 548.65625 86.351562 546.585938 96.683594 544.511719 104.152344 C 542.4375 111.621094 539.902344 110.996094 539.902344 110.996094 C 540.859375 107.015625 541.484375 99.382812 541.351562 94.28125 C 541.1875 89.183594 541.351562 75.199219 536.414062 71.21875 C 531.480469 67.238281 515.253906 65 509.761719 64.703125 C 504.265625 64.375 502.191406 63.914062 502.191406 63.914062 C 487.875 51.90625 477.378906 52.300781 472.113281 52.070312 C 466.847656 51.839844 467.011719 53.914062 467.339844 54.601562 C 467.671875 55.328125 479.8125 73.621094 481.328125 75.101562 C 482.808594 76.582031 486.921875 80.101562 484.421875 80.398438 C 481.917969 80.695312 478.199219 81.945312 474.582031 83.785156 C 470.929688 85.628906 464.808594 93.953125 462.898438 97.605469 C 460.988281 101.257812 455.890625 108.429688 450.328125 116.226562 C 444.765625 124.023438 437.527344 127.839844 436.175781 129.121094 C 434.828125 130.40625 434.039062 131.425781 433.875 134.289062 C 433.707031 137.152344 433.875 141.03125 433.875 145.804688 C 433.972656 150.605469 435.386719 154.191406 436.835938 156.101562 Z M 469.316406 224.171875 C 467.042969 228.582031 468.328125 233.054688 469.808594 235.390625 C 471.488281 238.089844 473.988281 241.90625 475.996094 244.667969 C 476.292969 245.097656 475.765625 245.625 475.335938 245.292969 C 471.914062 242.5625 466.550781 238.1875 464.675781 235.753906 C 461.8125 232.070312 462.273438 226.671875 464.542969 222.855469 C 466.878906 218.910156 475.535156 210.75 482.414062 205.582031 C 482.808594 205.289062 483.269531 205.78125 482.972656 206.144531 C 479.222656 210.683594 471.058594 220.785156 469.316406 224.171875 Z M 474.613281 260.332031 C 474.613281 260.332031 473.757812 260.265625 473.757812 259.476562 C 473.757812 258.683594 474.613281 258.621094 474.613281 258.621094 L 512.984375 258.785156 Z M 555.503906 304.546875 L 518.710938 305.734375 L 457.863281 306.390625 C 457.863281 306.390625 455.660156 306.292969 455.660156 305.007812 C 455.660156 303.757812 457.863281 303.628906 457.863281 303.628906 L 555.503906 303.628906 Z M 573.667969 292.574219 L 460.660156 296.75 C 460.660156 296.75 458.125 296.585938 458.125 294.644531 C 458.125 292.738281 460.660156 292.539062 460.660156 292.539062 L 573.667969 292.539062 Z M 540.199219 270.628906 L 469.875 272.734375 C 469.875 272.734375 468.296875 272.636719 468.296875 271.679688 C 468.296875 270.726562 469.875 270.628906 469.875 270.628906 Z M 487.644531 104.25 C 486.199219 106.027344 482.710938 106.554688 483.761719 105.828125 C 484.652344 105.238281 485.441406 105.039062 486.328125 103.425781 C 487.414062 101.519531 486.328125 100.761719 486.328125 100.761719 C 486.066406 99.414062 488.203125 99.675781 488.632812 100.597656 C 489.160156 101.71875 489.09375 102.472656 487.644531 104.25 Z M 472.210938 56.542969 C 471.585938 55.589844 472.144531 55.65625 473.726562 57.105469 C 475.304688 58.550781 486.460938 74.113281 487.644531 75.855469 C 488.832031 77.601562 489.71875 80.957031 487.152344 78.257812 C 484.617188 75.5625 472.210938 56.542969 472.210938 56.542969 Z M 492.8125 96.417969 C 496.761719 97.011719 486.363281 96.648438 483.398438 99.152344 C 481.65625 100.632812 479.089844 102.605469 477.804688 104.742188 C 476.488281 106.882812 475.667969 109.152344 475.304688 106.882812 C 475.304688 106.882812 475.273438 102.242188 480.40625 98.65625 C 485.539062 95.070312 489.390625 95.894531 492.8125 96.417969 Z M 460.59375 108.625 C 463.785156 103.363281 469.808594 92.570312 473 89.378906 C 476.191406 86.1875 479.679688 84.609375 483.664062 83.820312 C 487.644531 83.03125 477.445312 88.753906 476.191406 90.167969 C 474.910156 91.617188 465.070312 105.761719 462.503906 109.085938 C 459.96875 112.441406 454.867188 119.253906 449.769531 122.609375 C 449.800781 122.609375 457.433594 113.890625 460.59375 108.625 Z M 447.332031 134.550781 C 449.242188 137.117188 447.367188 140.308594 446.476562 141.558594 C 445.589844 142.808594 446.015625 140.902344 446.050781 139.519531 C 446.113281 137.90625 446.34375 136.820312 445.390625 135.636719 C 444.402344 134.421875 443.613281 134.15625 442.394531 134.75 C 441.375 135.242188 440.851562 135.40625 441.804688 134.15625 C 442.988281 132.644531 445.425781 131.984375 447.332031 134.550781 Z M 435.945312 137.480469 C 436.109375 135.570312 436.109375 133.335938 437.394531 131.261719 C 438.675781 129.1875 442.230469 126.65625 442.230469 126.65625 C 443.351562 125.800781 443.121094 126.226562 442.460938 127.183594 C 441.835938 128.136719 439.367188 130.964844 438.710938 132.710938 C 438.21875 134.023438 438.152344 136.460938 438.085938 139.15625 C 438.019531 141.855469 438.050781 144.652344 438.414062 146.691406 C 438.777344 148.730469 439.566406 150.738281 440.488281 152.285156 C 441.246094 153.601562 440.851562 155.3125 439.433594 153.4375 C 438.546875 152.285156 437.164062 149.75 436.441406 147.121094 C 435.714844 144.488281 435.78125 139.386719 435.945312 137.480469 Z M 435.945312 137.480469 "/><path style=" stroke:none;fill-rule:nonzero;fill:#000000;fill-opacity:1;" d="M 223.09375 406.574219 L 319.089844 447.402344 L 415.082031 406.574219 Z M 223.09375 406.574219 "/><g clip-rule="nonzero" clip-path="url(#d6c9b1c099)"><path style=" stroke:none;fill-rule:nonzero;fill:#000000;fill-opacity:1;" d="M 319.089844 529.0625 L 415.082031 488.230469 L 319.089844 447.402344 L 223.09375 488.230469 Z M 319.089844 529.0625 "/></g><g clip-rule="nonzero" clip-path="url(#6b0ed9b273)"><path style=" stroke:none;fill-rule:nonzero;fill:#000000;fill-opacity:1;" d="M 415.082031 324.945312 L 511.042969 365.777344 L 607.035156 324.945312 Z M 415.082031 324.945312 "/></g><g clip-rule="nonzero" clip-path="url(#84b5a411e9)"><path style=" stroke:none;fill-rule:nonzero;fill:#000000;fill-opacity:1;" d="M 415.082031 406.574219 L 511.042969 447.402344 L 607.035156 406.574219 L 511.042969 365.777344 Z M 415.082031 406.574219 "/></g><g clip-rule="nonzero" clip-path="url(#39b024f51d)"><path style=" stroke:none;fill-rule:nonzero;fill:#000000;fill-opacity:1;" d="M 31.140625 324.945312 L 127.132812 365.777344 L 223.09375 324.945312 Z M 31.140625 324.945312 "/></g><g clip-rule="nonzero" clip-path="url(#ae07fc8c6e)"><path style=" stroke:none;fill-rule:nonzero;fill:#000000;fill-opacity:1;" d="M 127.132812 447.402344 L 223.09375 406.574219 L 127.132812 365.777344 L 31.140625 406.574219 Z M 127.132812 447.402344 "/></g></g></svg>